<mxfile host="app.diagrams.net" modified="2023-10-18T08:47:46.696Z" agent="Mozilla/5.0 (Windows NT 10.0; Win64; x64) AppleWebKit/537.36 (KHTML, like Gecko) Chrome/117.0.0.0 Safari/537.36" version="22.0.4" etag="u1g4PkC1-CzyLGe8mEXp" type="github">
  <diagram name="Page-1" id="x1in0a--r22xY3QfqfxZ">
    <mxGraphModel>
      <root>
        <mxCell id="0" />
        <mxCell id="1" parent="0" />
      </root>
    </mxGraphModel>
  </diagram>
</mxfile>
